<?xml version="1.0" standalone="no"?>
<!DOCTYPE svg PUBLIC "-//W3C//DTD SVG 20010904//EN"
 "http://www.w3.org/TR/2001/REC-SVG-20010904/DTD/svg10.dtd">
<svg version="1.0" xmlns="http://www.w3.org/2000/svg"
 width="1080.000000pt" height="1080.000000pt" viewBox="0 0 1080.000000 1080.000000"
 preserveAspectRatio="xMidYMid meet">
<metadata>
Created by potrace 1.11, written by Peter Selinger 2001-2013
</metadata>
<g transform="translate(0.000000,1080.000000) scale(0.100000,-0.100000)"
fill="#000000" stroke="none">
<path d="M1291 9390 l-44 -5 0 -200 1 -199 31 -27 c39 -32 58 -41 151 -69 120
-36 147 -53 161 -103 18 -62 21 -6577 3 -6657 -18 -79 -36 -90 -244 -150 -19
-6 -50 -23 -68 -39 l-34 -29 0 -178 c0 -99 1 -190 1 -204 l1 -25 1313 0 c721
0 1318 4 1325 8 6 5 12 17 12 28 0 10 3 19 8 19 5 0 8 298 3 396 -1 16 -13 23
-68 37 -176 45 -247 92 -269 180 -8 32 -11 335 -12 1046 0 906 2 1003 16 1018
9 8 59 50 112 92 52 42 97 78 100 81 7 7 347 285 469 382 53 42 105 85 116 95
11 10 51 42 89 72 66 52 69 53 83 35 17 -24 62 -79 88 -108 11 -12 31 -37 45
-56 14 -18 30 -38 35 -44 6 -6 30 -36 55 -66 25 -30 47 -57 50 -60 4 -3 19
-23 36 -45 16 -22 44 -56 61 -75 18 -19 33 -38 33 -41 0 -3 14 -21 31 -40 17
-19 43 -50 58 -69 14 -19 35 -45 46 -56 11 -12 31 -37 45 -55 14 -18 34 -43
45 -55 11 -12 29 -35 40 -50 11 -15 28 -35 38 -43 9 -9 17 -19 17 -24 0 -4 10
-18 23 -31 12 -13 29 -32 37 -42 8 -11 28 -35 44 -54 89 -109 188 -231 236
-291 19 -24 51 -62 70 -85 37 -44 41 -49 105 -129 22 -27 46 -57 55 -67 8 -9
25 -29 37 -45 21 -27 30 -39 92 -113 16 -19 92 -111 167 -205 174 -214 167
-205 179 -219 6 -6 60 -72 120 -146 175 -218 277 -343 304 -376 14 -17 33 -41
41 -54 8 -12 20 -28 25 -34 24 -25 95 -133 95 -143 0 -16 -89 -51 -190 -75
-89 -20 -90 -21 -90 -52 -3 -285 0 -388 12 -413 l13 -28 1615 0 1615 0 1 205
2 205 -40 37 c-23 21 -44 36 -47 33 -4 -2 -25 0 -47 6 -21 5 -55 11 -74 14
-66 11 -175 47 -250 83 -61 30 -95 57 -185 147 -96 96 -137 140 -248 265 -12
14 -42 50 -67 79 -25 30 -50 59 -55 65 -6 6 -30 36 -55 66 -25 30 -47 57 -50
60 -3 3 -25 30 -50 60 -25 30 -47 57 -50 60 -3 3 -34 41 -70 85 -35 44 -69 85
-75 91 -6 6 -27 31 -46 54 -18 24 -43 53 -54 66 -11 12 -33 39 -50 60 -16 20
-35 42 -40 48 -6 6 -30 36 -55 66 -25 30 -47 57 -50 60 -3 3 -25 30 -50 60
-25 30 -47 57 -51 60 -3 3 -27 32 -54 65 -26 33 -69 85 -94 115 -25 30 -53 63
-61 73 -8 11 -44 54 -80 97 -77 91 -105 126 -249 299 -20 24 -41 49 -46 55 -6
6 -53 63 -105 126 -52 63 -102 124 -112 135 -9 11 -67 81 -129 155 -61 74
-121 146 -133 160 -11 14 -41 50 -66 80 -25 30 -49 60 -55 66 -5 6 -26 30 -45
54 -19 24 -40 48 -45 54 -10 11 -142 171 -158 191 -13 18 -48 59 -70 85 -12
14 -53 63 -92 110 -38 47 -76 92 -85 101 -8 9 -31 36 -50 60 -42 52 -140 169
-155 185 -5 6 -21 26 -35 44 -14 18 -30 38 -35 44 -6 6 -44 52 -85 101 -41 50
-77 92 -80 95 -3 3 -16 19 -28 37 -22 31 -22 32 -2 38 11 3 20 10 20 14 0 4
19 22 43 39 23 17 56 42 72 56 17 14 35 29 40 33 38 30 361 289 365 293 3 4
39 33 80 65 41 33 77 63 78 67 2 4 8 8 13 8 5 0 22 11 37 24 25 23 64 55 87
73 42 33 112 90 121 98 6 6 26 21 44 35 18 14 38 30 44 35 6 6 56 46 111 90
123 97 115 91 145 116 14 12 52 42 85 67 33 25 62 49 65 52 3 4 91 75 195 158
105 83 197 157 205 164 8 7 100 82 205 166 104 84 197 158 205 165 8 7 49 39
90 72 101 81 108 87 133 109 12 10 42 35 67 55 25 20 47 38 50 41 3 3 32 27
65 54 33 27 69 58 80 67 68 61 420 343 509 409 64 47 153 80 297 109 84 17
158 56 160 85 4 65 3 390 -2 398 -7 11 -3366 14 -3377 3 -4 -4 -7 -111 -7
-238 l0 -231 35 -8 c19 -4 51 -10 70 -14 69 -11 183 -55 195 -74 5 -9 -83
-103 -131 -140 -11 -8 -44 -35 -74 -60 -30 -25 -61 -49 -68 -55 -7 -5 -21 -17
-30 -26 -9 -8 -37 -31 -62 -49 -25 -19 -49 -40 -55 -46 -5 -6 -107 -89 -225
-184 -118 -96 -217 -177 -220 -180 -3 -3 -21 -17 -40 -32 -19 -14 -44 -34 -55
-45 -11 -10 -40 -34 -65 -53 -25 -19 -50 -39 -56 -45 -6 -5 -30 -26 -54 -45
-24 -19 -51 -42 -60 -50 -9 -8 -34 -28 -55 -44 -22 -17 -42 -33 -45 -36 -3 -3
-27 -23 -55 -45 -27 -21 -59 -47 -70 -57 -11 -10 -40 -34 -65 -54 -25 -20 -54
-43 -65 -52 -30 -25 -348 -285 -363 -297 -7 -5 -27 -22 -43 -37 -16 -16 -32
-28 -35 -28 -3 0 -11 -6 -18 -12 -7 -7 -30 -26 -51 -43 -20 -16 -56 -46 -79
-65 -73 -60 -110 -90 -146 -118 -19 -15 -45 -37 -58 -49 -12 -13 -25 -23 -28
-23 -3 0 -36 -26 -73 -57 -37 -32 -77 -65 -87 -73 -31 -24 -129 -104 -134
-110 -3 -3 -27 -23 -55 -45 -27 -22 -59 -47 -70 -57 -11 -9 -39 -31 -61 -50
-87 -69 -120 -97 -143 -117 -13 -12 -27 -21 -31 -21 -11 0 -9 2343 2 2393 11
53 42 98 82 122 33 20 130 54 211 75 l50 13 -1 201 c-1 131 -6 212 -14 234
-11 30 -15 32 -63 32 -415 4 -2514 4 -2546 0z"/>
</g>
</svg>
